<svg width="250" height="369" viewBox="0 0 250 369" fill="none" xmlns="http://www.w3.org/2000/svg">
<circle cx="125" cy="125" r="125" fill="#E06927"/>
<path d="M3.28 289H12.08V337H26.56V345H3.28V289ZM30.78 289H39.58V345H30.78V289ZM46.1706 289H58.7306L64.3306 329.08H64.4906L70.0906 289H82.6506V345H74.3306V302.6H74.1706L67.7706 345H60.4106L54.0106 302.6H53.8506V345H46.1706V289ZM101.938 345.8C97.6175 345.8 94.3108 344.573 92.0175 342.12C89.7242 339.667 88.5775 336.2 88.5775 331.72V302.28C88.5775 297.8 89.7242 294.333 92.0175 291.88C94.3108 289.427 97.6175 288.2 101.938 288.2C106.258 288.2 109.564 289.427 111.858 291.88C114.151 294.333 115.298 297.8 115.298 302.28V331.72C115.298 336.2 114.151 339.667 111.858 342.12C109.564 344.573 106.258 345.8 101.938 345.8ZM101.938 337.8C104.978 337.8 106.497 335.96 106.497 332.28V301.72C106.497 298.04 104.978 296.2 101.938 296.2C98.8975 296.2 97.3775 298.04 97.3775 301.72V332.28C97.3775 335.96 98.8975 337.8 101.938 337.8ZM121.249 289H132.289L140.849 322.52H141.009V289H148.849V345H139.809L129.249 304.12H129.089V345H121.249V289ZM162.189 289H174.109L183.229 345H174.429L172.829 333.88V334.04H162.829L161.229 345H153.069L162.189 289ZM171.789 326.44L167.869 298.76H167.709L163.869 326.44H171.789ZM187.499 289H200.939C205.312 289 208.592 290.173 210.779 292.52C212.965 294.867 214.059 298.307 214.059 302.84V331.16C214.059 335.693 212.965 339.133 210.779 341.48C208.592 343.827 205.312 345 200.939 345H187.499V289ZM200.779 337C202.219 337 203.312 336.573 204.059 335.72C204.859 334.867 205.259 333.48 205.259 331.56V302.44C205.259 300.52 204.859 299.133 204.059 298.28C203.312 297.427 202.219 297 200.779 297H196.299V337H200.779ZM226.643 289H238.563L247.683 345H238.883L237.283 333.88V334.04H227.283L225.683 345H217.523L226.643 289ZM236.243 326.44L232.323 298.76H232.163L228.322 326.44H236.243Z" fill="#3F3F3F"/>
<path d="M193.273 56.7274C186.507 49.9619 177.338 48.2627 171.273 51.7956C154.016 61.8479 118.173 36.2457 77.2092 77.2095C36.2455 118.173 61.848 154.016 51.7957 171.273C48.2628 177.338 49.9617 186.507 56.7272 193.273C63.4933 200.039 72.6623 201.737 78.7277 198.204C95.9838 188.152 131.827 213.755 172.79 172.791C213.754 131.828 188.152 95.9844 198.204 78.7273C201.737 72.6623 200.039 63.4932 193.273 56.7274ZM121.449 77.9849C104.402 82.2468 82.248 104.398 77.9853 121.449C77.453 123.579 75.5413 125.001 73.441 125.001C73.0649 125.001 72.6823 124.955 72.3005 124.86C69.7892 124.232 68.2622 121.687 68.8898 119.176C73.9945 98.7579 98.7254 74.0029 119.175 68.89C121.688 68.2622 124.232 69.7891 124.86 72.3008C125.487 74.8124 123.961 77.3571 121.449 77.9849Z" fill="#FFDDBE"/>
</svg>
