<svg width="40" height="40" viewBox="0 0 40 40" fill="none" xmlns="http://www.w3.org/2000/svg">
<circle cx="20" cy="20" r="20" fill="#D55C27"/>
<path d="M19.946 14.3308C16.8406 14.3308 14.3357 16.8357 14.3357 19.9412C14.3357 23.0466 16.8406 25.5515 19.946 25.5515C23.0515 25.5515 25.5564 23.0466 25.5564 19.9412C25.5564 16.8357 23.0515 14.3308 19.946 14.3308ZM19.946 23.5886C17.9392 23.5886 16.2986 21.9529 16.2986 19.9412C16.2986 17.9294 17.9343 16.2937 19.946 16.2937C21.9578 16.2937 23.5935 17.9294 23.5935 19.9412C23.5935 21.9529 21.9529 23.5886 19.946 23.5886ZM27.0945 14.1013C27.0945 14.8289 26.5085 15.4099 25.7859 15.4099C25.0584 15.4099 24.4773 14.824 24.4773 14.1013C24.4773 13.3787 25.0632 12.7927 25.7859 12.7927C26.5085 12.7927 27.0945 13.3787 27.0945 14.1013ZM30.8103 15.4294C30.7273 13.6765 30.3269 12.1238 29.0427 10.8445C27.7634 9.56519 26.2107 9.16479 24.4578 9.0769C22.6511 8.97437 17.2361 8.97437 15.4294 9.0769C13.6814 9.15991 12.1287 9.5603 10.8445 10.8396C9.5603 12.1189 9.16479 13.6716 9.0769 15.4246C8.97437 17.2312 8.97437 22.6462 9.0769 24.4529C9.15991 26.2058 9.5603 27.7585 10.8445 29.0378C12.1287 30.3171 13.6765 30.7175 15.4294 30.8054C17.2361 30.908 22.6511 30.908 24.4578 30.8054C26.2107 30.7224 27.7634 30.322 29.0427 29.0378C30.322 27.7585 30.7224 26.2058 30.8103 24.4529C30.9128 22.6462 30.9128 17.2361 30.8103 15.4294ZM28.4763 26.3914C28.0955 27.3484 27.3582 28.0857 26.3962 28.4714C24.9558 29.0427 21.5378 28.9109 19.946 28.9109C18.3542 28.9109 14.9314 29.0378 13.4958 28.4714C12.5388 28.0906 11.8015 27.3533 11.4158 26.3914C10.8445 24.9509 10.9763 21.533 10.9763 19.9412C10.9763 18.3494 10.8494 14.9265 11.4158 13.491C11.7966 12.5339 12.5339 11.7966 13.4958 11.4109C14.9363 10.8396 18.3542 10.9714 19.946 10.9714C21.5378 10.9714 24.9607 10.8445 26.3962 11.4109C27.3533 11.7917 28.0906 12.5291 28.4763 13.491C29.0476 14.9314 28.9158 18.3494 28.9158 19.9412C28.9158 21.533 29.0476 24.9558 28.4763 26.3914Z" fill="white"/>
</svg>
