<svg width="40" height="40" viewBox="0 0 40 40" fill="none" xmlns="http://www.w3.org/2000/svg">
<circle cx="20" cy="20" r="20" fill="#B68C14"/>
<path d="M14.9444 28.4444C13.8333 28.4444 12.7222 27.4722 12.1667 27.0556C9.38889 25.1111 8.55556 24.4167 8 24V29.8333C8 30.6003 8.62196 31.2222 9.38889 31.2222H20.5C21.2669 31.2222 21.8889 30.6003 21.8889 29.8333V24C21.3333 24.4167 20.5 25.1111 17.7222 27.0556C17.1667 27.4722 16.0556 28.4444 14.9444 28.4444ZM20.5 20.1111H9.38889C8.62196 20.1111 8 20.7331 8 21.5V22.1944C9.11111 23.0278 8.97222 23.0278 13 25.9444C13.4167 26.2222 14.25 27.0556 14.9444 27.0556C15.6389 27.0556 16.4722 26.2222 16.8889 26.0833C20.9167 23.1667 20.7778 23.1667 21.8889 22.3333V21.5C21.8889 20.7331 21.2669 20.1111 20.5 20.1111ZM31.6111 15.9444H17.7222C16.9553 15.9444 16.3333 16.5664 16.3333 17.3333V18.7222H20.5C21.9414 18.7222 23.1298 19.8255 23.2652 21.2318L23.2778 21.2222V27.0556H31.6111C32.378 27.0556 33 26.4336 33 25.6667V17.3333C33 16.5664 32.378 15.9444 31.6111 15.9444ZM30.2222 21.5H27.4444V18.7222H30.2222V21.5ZM14.9444 17.3333C14.9444 15.8016 16.1905 14.5556 17.7222 14.5556H27.4444V10.3889C27.4444 9.62196 26.8225 9 26.0556 9H12.1667C11.3997 9 10.7778 9.62196 10.7778 10.3889V18.7222H14.9444V17.3333Z" fill="white"/>
</svg>
